<svg height="458pt" viewBox="-8 0 458 458.52384" width="458pt" xmlns="http://www.w3.org/2000/svg"><path d="m175.261719 96.824219c3.867187 0 7-3.136719 7-7v-60c0-3.867188-3.132813-7-7-7-3.867188 0-7 3.132812-7 7v60c0 3.863281 3.132812 7 7 7zm0 0"/><path d="m114.261719 96.824219c3.867187 0 7-3.136719 7-7v-46c0-3.867188-3.132813-7-7-7-3.867188 0-7 3.132812-7 7v46c0 3.863281 3.132812 7 7 7zm0 0"/><path d="m236.261719 96.824219c3.867187 0 7-3.136719 7-7v-46c0-3.867188-3.132813-7-7-7-3.867188 0-7 3.132812-7 7v46c0 3.863281 3.132812 7 7 7zm0 0"/><path d="m355.199219 9.273438-31.679688-9.273438-40.484375 138.523438h34.378906zm0 0"/><path d="m403.261719 197.523438h39v75h-39zm0 0"/><path d="m.261719 197.523438h39v75h-39zm0 0"/><path d="m53.261719 406.007812c0 29.222657 23.898437 52.515626 53.121093 52.515626h230.257813c13.960937.078124 27.375-5.425782 37.257813-15.289063 9.882812-9.859375 15.414062-23.265625 15.363281-37.226563v-168.484374h-336zm0 0"/><path d="m423.640625 151.523438c0-3.867188-3.132813-7-7-7h-390.257813c-3.863281 0-7 3.132812-7 7 0 3.867187 3.136719 7 7 7h26.878907v65h336v-65h27.378906c3.867187 0 7-3.132813 7-7zm0 0"/></svg>